<!-- icon666.com - MILLIONS vector ICONS FREE --><svg viewBox="0 0 512 512" xmlns="http://www.w3.org/2000/svg"><g><g fill="#57a4ff"><path d="m400 211.75v88.5a20 20 0 0 1 -26.32 18.98l-69.68-23.23v12a19.994 19.994 0 0 1 -20 20h-152a19.994 19.994 0 0 1 -20-20v-104a19.994 19.994 0 0 1 20-20h152a19.994 19.994 0 0 1 20 20v12l69.68-23.23a20 20 0 0 1 26.32 18.98z"></path><path d="m256 16c-132.55 0-240 107.45-240 240s107.45 240 240 240 240-107.45 240-240-107.45-240-240-240zm0 448c-114.88 0-208-93.12-208-208s93.12-208 208-208 208 93.12 208 208-93.12 208-208 208z"></path><path d="m400 211.75v88.5a20 20 0 0 1 -26.32 18.98l-69.68-23.23v12a19.994 19.994 0 0 1 -20 20h-152a19.994 19.994 0 0 1 -20-20v-104a19.994 19.994 0 0 1 20-20h152a19.994 19.994 0 0 1 20 20v12l69.68-23.23a20 20 0 0 1 26.32 18.98z"></path><rect height="144" rx="20" width="192" x="112" y="184"></rect><path d="m400 211.75v88.5a20 20 0 0 1 -26.32 18.98l-69.68-23.23v-80l69.68-23.23a20 20 0 0 1 26.32 18.98z"></path></g><g fill="#004fac"><path d="m431.36 80.64a248 248 0 1 0 -350.72 350.72 248 248 0 1 0 350.72-350.72zm-11.31 339.41a232 232 0 0 1 -328.1-328.1 232 232 0 0 1 328.1 328.1z"></path><path d="m408.74 103.26a216.007 216.007 0 0 0 -305.48 305.48 216.007 216.007 0 0 0 305.48-305.48zm-152.74 352.74c-110.28 0-200-89.72-200-200s89.72-200 200-200 200 89.72 200 200-89.72 200-200 200z"></path><path d="m396.37 189.03a27.711 27.711 0 0 0 -25.22-3.85l-59.15 19.72v-.9a28.031 28.031 0 0 0 -28-28h-152a28.031 28.031 0 0 0 -28 28v104a28.031 28.031 0 0 0 28 28h152a28.031 28.031 0 0 0 28-28v-.9l59.15 19.72a28.272 28.272 0 0 0 8.94 1.46 28.054 28.054 0 0 0 27.91-28.03v-88.5a27.717 27.717 0 0 0 -11.63-22.72zm-100.37 118.97a12.01 12.01 0 0 1 -12 12h-152a12.01 12.01 0 0 1 -12-12v-104a12.01 12.01 0 0 1 12-12h152a12.01 12.01 0 0 1 12 12zm96-7.75a12 12 0 0 1 -15.79 11.39l-64.21-21.41v-68.46l64.21-21.41a12 12 0 0 1 15.79 11.39z"></path></g></g></svg>