<!-- icon666.com - MILLIONS vector ICONS FREE --><svg id="Capa_1" enable-background="new 0 0 511 511" viewBox="0 0 511 511" xmlns="http://www.w3.org/2000/svg"><g><path d="m427 164.622v-103.622h-73v41.051l-98.5-84.429-116.731 100.056 9.762 11.389 106.969-91.689 240.119 205.816 9.762-11.389zm-15-12.857-43-36.857v-38.908h43z" fill="#000000" style="fill: rgb(255, 255, 255);"></path><path d="m92.677 140.277h45v15h-45z" transform="matrix(.759 -.651 .651 .759 -68.444 110.533)" fill="#000000" style="fill: rgb(255, 255, 255);"></path><path d="m-1.582 197.341h100.368v15h-100.368z" transform="matrix(.759 -.651 .651 .759 -121.608 80.944)" fill="#000000" style="fill: rgb(255, 255, 255);"></path><path d="m413.5 30h15v15h-15z" fill="#000000" style="fill: rgb(255, 255, 255);"></path><path d="m383.5 30h15v15h-15z" fill="#000000" style="fill: rgb(255, 255, 255);"></path><path d="m352.5 30h15v15h-15z" fill="#000000" style="fill: rgb(255, 255, 255);"></path><path d="m397.5 0h15v15h-15z" fill="#000000" style="fill: rgb(255, 255, 255);"></path><path d="m367.5 0h15v15h-15z" fill="#000000" style="fill: rgb(255, 255, 255);"></path><path d="m433 496h-355v-280.5h-15v295.5h385v-129.5h-15z" fill="#000000" style="fill: rgb(255, 255, 255);"></path><path d="m433 215.5h15v91h-15z" fill="#000000" style="fill: rgb(255, 255, 255);"></path><path d="m433 321.5h15v45h-15z" fill="#000000" style="fill: rgb(255, 255, 255);"></path><path d="m104.5 466h15v15h-15z" fill="#000000" style="fill: rgb(255, 255, 255);"></path><path d="m391.5 466h15v15h-15z" fill="#000000" style="fill: rgb(255, 255, 255);"></path><path d="m160.5 260h70v15h-70z" fill="#000000" style="fill: rgb(255, 255, 255);"></path><path d="m160.5 290h30v15h-30z" fill="#000000" style="fill: rgb(255, 255, 255);"></path><path d="m295.5 215c-16.782 0-31.548 8.756-40 21.932-8.452-13.176-23.218-21.932-40-21.932h-87.5v30h-30v185h92.5v-15h-77.5v-155h15v140h255v-140h15v155h-192.5v15h207.5v-185h-30v-30zm-152.5 170v-25h72.5c15.339 0 28.221 10.685 31.617 25zm105-27.094c-8.504-7.994-19.936-12.906-32.5-12.906h-72.5v-115h72.5c17.921 0 32.5 14.58 32.5 32.5zm120 27.094h-104.117c3.396-14.315 16.278-25 31.617-25h72.5zm0-40h-72.5c-12.564 0-23.996 4.912-32.5 12.906v-95.406c0-17.92 14.579-32.5 32.5-32.5h72.5z" fill="#000000" style="fill: rgb(255, 255, 255);"></path><path d="m280.5 260h70v15h-70z" fill="#000000" style="fill: rgb(255, 255, 255);"></path><path d="m280.5 290h30v15h-30z" fill="#000000" style="fill: rgb(255, 255, 255);"></path><path d="m134.5 466h15v15h-15z" fill="#000000" style="fill: rgb(255, 255, 255);"></path><path d="m361.5 466h15v15h-15z" fill="#000000" style="fill: rgb(255, 255, 255);"></path><path d="m205.5 290h15v15h-15z" fill="#000000" style="fill: rgb(255, 255, 255);"></path><path d="m325.5 290h15v15h-15z" fill="#000000" style="fill: rgb(255, 255, 255);"></path></g></svg>